<?xml version="1.0" encoding="UTF-8"?>
<svg id="Vrstva_2" data-name="Vrstva 2" xmlns="http://www.w3.org/2000/svg" viewBox="0 0 882 441">
  <defs>
    <style>
      .cls-1 {
        fill: none;
      }

      .cls-2 {
        fill: #fff;
      }
    </style>
  </defs>
  <g id="Vrstva_1-2" data-name="Vrstva 1">
    <rect class="cls-1" width="882" height="441"/>
    <polygon class="cls-2" points="594 44.98 576 44.98 576 44.98 540 44.98 540 44.98 522 44.98 522 80.98 540 80.98 540 369.12 576 369.12 576 80.98 594 80.98 594 44.98"/>
    <path class="cls-2" d="M729,395.98h36V81.27h18c9.94,0,18,8.06,18,18v296.7h36V98.98c0-29.66-24.04-53.7-53.7-53.7h-54.3s0,350.7,0,350.7Z"/>
    <path class="cls-2" d="M657,81c-9.93,0-18,8.07-18,18s8.07,18,18,18,18-8.07,18-18-8.07-18-18-18Z"/>
    <g>
      <path class="cls-2" d="M333,44.98h0c-29.82,0-54,24.18-54,54v248.67c5.11-3.57,11.31-5.67,18-5.67s12.89,2.1,18,5.67v-158.67h36v117h36V98.98c0-29.82-24.18-54-54-54ZM351,152.98h-36v-54c0-9.94,8.06-18,18-18h0c9.94,0,18,8.06,18,18v54Z"/>
      <rect class="cls-2" x="274.5" y="350.98" width="45" height="45" rx="22.5" ry="22.5"/>
    </g>
    <path class="cls-2" d="M459,44.98h-54v243h36v-99c19.88,0,36,16.12,36,36v27h36c0-19.3,0-46.3,0-27,0-5.42-.6-12.68-3.06-20.82-3.19-10.56-8.74-20.1-16.03-28,11.67-9.91,19.09-24.67,19.09-41.18v-36c0-29.82-24.18-54-54-54ZM441,152.98v-72h18c9.94,0,18,8.06,18,18v36c0,9.94-8.06,18-18,18h-18Z"/>
    <path class="cls-2" d="M117,44.98v90c0,9.94-8.06,18-18,18h-18V44.98h-36v351h36v-207h0c19.88,0,36,16.12,36,36v171h36v-171c0-18.84-7.24-35.98-19.09-48.82,11.67-9.91,19.09-24.67,19.09-41.18h0V44.98h-36Z"/>
    <polygon class="cls-2" points="198 44.98 216 395.98 234 44.98 270 44.98 252 395.98 216 395.98 180 395.98 162 44.98 198 44.98"/>
    <g>
      <rect class="cls-2" x="405" y="337.48" width="36" height="4.5"/>
      <rect class="cls-2" x="405" y="328.48" width="36" height="4.5"/>
      <rect class="cls-2" x="405" y="319.48" width="36" height="4.5"/>
      <rect class="cls-2" x="405" y="305.98" width="36" height="4.5"/>
      <rect class="cls-2" x="405" y="296.98" width="36" height="4.5"/>
    </g>
    <g>
      <rect class="cls-2" x="405" y="391.48" width="36" height="4.5"/>
      <rect class="cls-2" x="405" y="382.48" width="36" height="4.5"/>
      <rect class="cls-2" x="405" y="373.48" width="36" height="4.5"/>
      <rect class="cls-2" x="405" y="359.98" width="36" height="4.5"/>
      <rect class="cls-2" x="405" y="350.98" width="36" height="4.5"/>
    </g>
    <g>
      <rect class="cls-2" x="508.5" y="251.98" width="4.5" height="144"/>
      <rect class="cls-2" x="498" y="251.98" width="4.5" height="144"/>
      <rect class="cls-2" x="487.5" y="251.98" width="4.5" height="144"/>
      <rect class="cls-2" x="477" y="251.98" width="4.5" height="144"/>
    </g>
    <rect class="cls-2" x="522.03" y="13.12" width="71.98" height="5.14" transform="translate(13.08 136.8) rotate(-14.14)"/>
    <rect class="cls-2" x="555.42" y="-2.67" width="5.14" height="71.98" transform="translate(523.58 591.25) rotate(-89.89)"/>
    <path class="cls-2" d="M371.25,395.98h-4.5v-4.5c0-3.72,3.03-6.75,6.75-6.75h6.96c1.24,0,2.25-1.01,2.25-2.25s-1.01-2.25-2.25-2.25h-22.65c-3.72,0-6.75-3.03-6.75-6.75s3.03-6.75,6.75-6.75h22.65c1.24,0,2.25-1.01,2.25-2.25s-1.01-2.25-2.25-2.25h-22.65c-3.72,0-6.75-3.03-6.75-6.75s3.03-6.75,6.75-6.75h22.65c1.24,0,2.25-1.01,2.25-2.25s-1.01-2.25-2.25-2.25h-22.65c-3.72,0-6.75-3.03-6.75-6.75s3.03-6.75,6.75-6.75h22.65c1.24,0,2.25-1.01,2.25-2.25s-1.01-2.25-2.25-2.25h-6.96c-3.72,0-6.75-3.03-6.75-6.75v-22.5h4.5v22.5c0,1.24,1.01,2.25,2.25,2.25h6.96c3.72,0,6.75,3.03,6.75,6.75s-3.03,6.75-6.75,6.75h-22.65c-1.24,0-2.25,1.01-2.25,2.25s1.01,2.25,2.25,2.25h22.65c3.72,0,6.75,3.03,6.75,6.75s-3.03,6.75-6.75,6.75h-22.65c-1.24,0-2.25,1.01-2.25,2.25s1.01,2.25,2.25,2.25h22.65c3.72,0,6.75,3.03,6.75,6.75s-3.03,6.75-6.75,6.75h-22.65c-1.24,0-2.25,1.01-2.25,2.25s1.01,2.25,2.25,2.25h22.65c3.72,0,6.75,3.03,6.75,6.75s-3.03,6.75-6.75,6.75h-6.96c-1.24,0-2.25,1.01-2.25,2.25v4.5Z"/>
    <rect class="cls-2" x="555.75" y="373.92" width="4.5" height="22.06"/>
    <polygon class="cls-2" points="578.53 395.97 558 375.44 537.46 395.99 531.08 396 558 369.08 584.92 396 578.53 395.97"/>
    <path class="cls-2" d="M657,44.98h0c-29.82,0-54,24.18-54,54v243c0,29.82,24.18,54,54,54h0c29.82,0,54-24.18,54-54V98.98c0-29.82-24.18-54-54-54ZM675,119.12v222.86c0,9.94-8.06,18-18,18h0c-9.94,0-18-8.06-18-18V119.12c-5.52-4.94-9-12.12-9-20.12,0-14.91,12.09-27,27-27s27,12.09,27,27c0,8-3.48,15.18-9,20.12Z"/>
  </g>
</svg>